<?xml version="1.0" encoding="UTF-8" standalone="no"?>
<!DOCTYPE svg PUBLIC "-//W3C//DTD SVG 1.1//EN"
 "http://www.w3.org/Graphics/SVG/1.1/DTD/svg11.dtd">
<!-- Generated by graphviz version 14.1.2 (20260124.0452)
 -->
<!-- Pages: 1 -->
<svg width="503pt" height="240pt"
 viewBox="0.00 0.00 503.00 240.00" xmlns="http://www.w3.org/2000/svg" xmlns:xlink="http://www.w3.org/1999/xlink">
<g id="graph0" class="graph" transform="scale(1 1) rotate(0) translate(4 236.25)">
<polygon fill="white" stroke="none" points="-4,4 -4,-236.25 498.97,-236.25 498.97,4 -4,4"/>
<text xml:space="preserve" text-anchor="start" x="199.49" y="-214.05" font-family="Times,serif" font-weight="bold" font-size="16.00">Example NFA</text>
<text xml:space="preserve" text-anchor="start" x="245.61" y="-198.05" font-family="Times,serif" font-size="16.00"> </text>
<!-- _init_ -->
<g id="node1" class="node">
<title>_init_</title>
<polygon fill="khaki" stroke="none" points="0.72,-92.72 0,-92.72 0,-91.28 0.72,-91.28 0.72,-92.72"/>
</g>
<!-- s0 -->
<g id="node6" class="node">
<title>s0</title>
<ellipse fill="khaki" stroke="black" cx="55.72" cy="-92" rx="18" ry="18"/>
<text xml:space="preserve" text-anchor="middle" x="55.72" y="-87.72" font-family="Times,serif" font-size="12.00">s0</text>
</g>
<!-- _init_&#45;&gt;s0 -->
<g id="edge1" class="edge">
<title>_init_&#45;&gt;s0</title>
<path fill="none" stroke="black" d="M0.87,-92C2.34,-92 13.93,-92 25.99,-92"/>
<polygon fill="black" stroke="black" points="25.86,-95.5 35.86,-92 25.86,-88.5 25.86,-95.5"/>
</g>
<!-- q4 -->
<g id="node2" class="node">
<title>q4</title>
<ellipse fill="khaki" stroke="black" stroke-width="1.25" cx="472.97" cy="-52" rx="18" ry="18"/>
<ellipse fill="none" stroke="black" stroke-width="1.25" cx="472.97" cy="-52" rx="22" ry="22"/>
<text xml:space="preserve" text-anchor="middle" x="472.97" y="-47.73" font-family="Times,serif" font-size="12.00">q4</text>
</g>
<!-- q4&#45;&gt;q4 -->
<g id="edge12" class="edge">
<title>q4&#45;&gt;q4</title>
<path fill="none" stroke="black" d="M465.1,-72.99C464.13,-83.09 466.76,-92 472.97,-92 476.66,-92 479.08,-88.86 480.24,-84.19"/>
<polygon fill="black" stroke="black" points="483.72,-84.67 480.76,-74.5 476.73,-84.3 483.72,-84.67"/>
<text xml:space="preserve" text-anchor="middle" x="472.97" y="-94.85" font-family="Times,serif" font-size="12.00">0, 1</text>
</g>
<!-- r0 -->
<g id="node3" class="node">
<title>r0</title>
<ellipse fill="khaki" stroke="black" stroke-width="1.25" cx="136.97" cy="-138" rx="18" ry="18"/>
<ellipse fill="none" stroke="black" stroke-width="1.25" cx="136.97" cy="-138" rx="22" ry="22"/>
<text xml:space="preserve" text-anchor="middle" x="136.97" y="-133.72" font-family="Times,serif" font-size="12.00">r0</text>
</g>
<!-- r0&#45;&gt;r0 -->
<g id="edge13" class="edge">
<title>r0&#45;&gt;r0</title>
<path fill="none" stroke="black" d="M129.17,-158.99C128.21,-169.09 130.81,-178 136.97,-178 140.63,-178 143.03,-174.86 144.18,-170.19"/>
<polygon fill="black" stroke="black" points="147.66,-170.67 144.69,-160.5 140.67,-170.3 147.66,-170.67"/>
<text xml:space="preserve" text-anchor="middle" x="136.97" y="-180.85" font-family="Times,serif" font-size="12.00">0</text>
</g>
<!-- r1 -->
<g id="node4" class="node">
<title>r1</title>
<ellipse fill="khaki" stroke="black" stroke-width="1.25" cx="222.97" cy="-154" rx="18" ry="18"/>
<ellipse fill="none" stroke="black" stroke-width="1.25" cx="222.97" cy="-154" rx="22" ry="22"/>
<text xml:space="preserve" text-anchor="middle" x="222.97" y="-149.72" font-family="Times,serif" font-size="12.00">r1</text>
</g>
<!-- r0&#45;&gt;r1 -->
<g id="edge14" class="edge">
<title>r0&#45;&gt;r1</title>
<path fill="none" stroke="black" d="M159.17,-142.04C168.42,-143.8 179.47,-145.91 189.71,-147.86"/>
<polygon fill="black" stroke="black" points="188.81,-151.25 199.29,-149.68 190.12,-144.37 188.81,-151.25"/>
<text xml:space="preserve" text-anchor="middle" x="179.97" y="-149.33" font-family="Times,serif" font-size="12.00">1</text>
</g>
<!-- r1&#45;&gt;r0 -->
<g id="edge15" class="edge">
<title>r1&#45;&gt;r0</title>
<path fill="none" stroke="black" d="M205.64,-139.85C199.05,-135.02 191.09,-130.23 182.97,-127.75 178.31,-126.33 173.33,-126.16 168.45,-126.73"/>
<polygon fill="black" stroke="black" points="167.9,-123.27 158.88,-128.83 169.4,-130.1 167.9,-123.27"/>
<text xml:space="preserve" text-anchor="middle" x="179.97" y="-130.6" font-family="Times,serif" font-size="12.00">0</text>
</g>
<!-- r2 -->
<g id="node5" class="node">
<title>r2</title>
<ellipse fill="khaki" stroke="black" stroke-width="1.25" cx="308.97" cy="-138" rx="18" ry="18"/>
<ellipse fill="none" stroke="black" stroke-width="1.25" cx="308.97" cy="-138" rx="22" ry="22"/>
<text xml:space="preserve" text-anchor="middle" x="308.97" y="-133.72" font-family="Times,serif" font-size="12.00">r2</text>
</g>
<!-- r1&#45;&gt;r2 -->
<g id="edge16" class="edge">
<title>r1&#45;&gt;r2</title>
<path fill="none" stroke="black" d="M240.84,-140.66C247.37,-136.29 255.15,-131.98 262.97,-129.75 267.4,-128.49 272.13,-128.22 276.8,-128.56"/>
<polygon fill="black" stroke="black" points="276.13,-132 286.57,-130.19 277.29,-125.09 276.13,-132"/>
<text xml:space="preserve" text-anchor="middle" x="265.97" y="-132.6" font-family="Times,serif" font-size="12.00">1</text>
</g>
<!-- r2&#45;&gt;r1 -->
<g id="edge18" class="edge">
<title>r2&#45;&gt;r1</title>
<path fill="none" stroke="black" d="M286.78,-142.04C277.53,-143.8 266.48,-145.9 256.24,-147.85"/>
<polygon fill="black" stroke="black" points="255.82,-144.37 246.65,-149.68 257.13,-151.25 255.82,-144.37"/>
<text xml:space="preserve" text-anchor="middle" x="265.97" y="-149.33" font-family="Times,serif" font-size="12.00">1</text>
</g>
<!-- r3 -->
<g id="node11" class="node">
<title>r3</title>
<ellipse fill="khaki" stroke="black" cx="390.97" cy="-138" rx="18" ry="18"/>
<text xml:space="preserve" text-anchor="middle" x="390.97" y="-133.72" font-family="Times,serif" font-size="12.00">r3</text>
</g>
<!-- r2&#45;&gt;r3 -->
<g id="edge17" class="edge">
<title>r2&#45;&gt;r3</title>
<path fill="none" stroke="black" d="M331.41,-138C340.56,-138 351.37,-138 361.2,-138"/>
<polygon fill="black" stroke="black" points="361,-141.5 371,-138 361,-134.5 361,-141.5"/>
<text xml:space="preserve" text-anchor="middle" x="351.97" y="-140.85" font-family="Times,serif" font-size="12.00">0</text>
</g>
<!-- s0&#45;&gt;r0 -->
<g id="edge3" class="edge">
<title>s0&#45;&gt;r0</title>
<path fill="none" stroke="black" d="M71.63,-100.65C81.71,-106.51 95.36,-114.43 107.49,-121.47"/>
<polygon fill="black" stroke="black" points="105.5,-124.36 115.9,-126.35 109.01,-118.31 105.5,-124.36"/>
<text xml:space="preserve" text-anchor="middle" x="94.35" y="-117.85" font-family="Times,serif" font-size="12.00">ε</text>
</g>
<!-- q0 -->
<g id="node7" class="node">
<title>q0</title>
<ellipse fill="khaki" stroke="black" cx="136.97" cy="-48" rx="18" ry="18"/>
<text xml:space="preserve" text-anchor="middle" x="136.97" y="-43.73" font-family="Times,serif" font-size="12.00">q0</text>
</g>
<!-- s0&#45;&gt;q0 -->
<g id="edge2" class="edge">
<title>s0&#45;&gt;q0</title>
<path fill="none" stroke="black" d="M72,-83.52C82.96,-77.43 97.99,-69.09 110.72,-62.02"/>
<polygon fill="black" stroke="black" points="112.37,-65.11 119.41,-57.19 108.97,-58.99 112.37,-65.11"/>
<text xml:space="preserve" text-anchor="middle" x="94.35" y="-74.17" font-family="Times,serif" font-size="12.00">ε</text>
</g>
<!-- q0&#45;&gt;q0 -->
<g id="edge5" class="edge">
<title>q0&#45;&gt;q0</title>
<path fill="none" stroke="black" d="M129.48,-64.66C127.81,-74.62 130.31,-84 136.97,-84 140.92,-84 143.41,-80.69 144.43,-75.92"/>
<polygon fill="black" stroke="black" points="147.93,-76.19 144.46,-66.18 140.93,-76.17 147.93,-76.19"/>
<text xml:space="preserve" text-anchor="middle" x="136.97" y="-86.85" font-family="Times,serif" font-size="12.00">1</text>
</g>
<!-- q1 -->
<g id="node8" class="node">
<title>q1</title>
<ellipse fill="khaki" stroke="black" cx="222.97" cy="-60" rx="18" ry="18"/>
<text xml:space="preserve" text-anchor="middle" x="222.97" y="-55.73" font-family="Times,serif" font-size="12.00">q1</text>
</g>
<!-- q0&#45;&gt;q1 -->
<g id="edge4" class="edge">
<title>q0&#45;&gt;q1</title>
<path fill="none" stroke="black" d="M154.97,-50.43C166.05,-52.01 180.79,-54.12 193.62,-55.95"/>
<polygon fill="black" stroke="black" points="192.82,-59.37 203.21,-57.32 193.81,-52.44 192.82,-59.37"/>
<text xml:space="preserve" text-anchor="middle" x="179.97" y="-57.21" font-family="Times,serif" font-size="12.00">0</text>
</g>
<!-- q1&#45;&gt;q1 -->
<g id="edge6" class="edge">
<title>q1&#45;&gt;q1</title>
<path fill="none" stroke="black" d="M215.41,-76.66C213.73,-86.62 216.25,-96 222.97,-96 226.96,-96 229.47,-92.69 230.5,-87.92"/>
<polygon fill="black" stroke="black" points="234,-88.19 230.52,-78.18 227,-88.17 234,-88.19"/>
<text xml:space="preserve" text-anchor="middle" x="222.97" y="-98.85" font-family="Times,serif" font-size="12.00">0</text>
</g>
<!-- q2 -->
<g id="node9" class="node">
<title>q2</title>
<ellipse fill="khaki" stroke="black" cx="308.97" cy="-18" rx="18" ry="18"/>
<text xml:space="preserve" text-anchor="middle" x="308.97" y="-13.72" font-family="Times,serif" font-size="12.00">q2</text>
</g>
<!-- q1&#45;&gt;q2 -->
<g id="edge7" class="edge">
<title>q1&#45;&gt;q2</title>
<path fill="none" stroke="black" d="M239.38,-52.3C251.38,-46.3 268.3,-37.83 282.34,-30.82"/>
<polygon fill="black" stroke="black" points="283.64,-34.08 291.02,-26.47 280.51,-27.82 283.64,-34.08"/>
<text xml:space="preserve" text-anchor="middle" x="265.97" y="-43.11" font-family="Times,serif" font-size="12.00">1</text>
</g>
<!-- q2&#45;&gt;q0 -->
<g id="edge9" class="edge">
<title>q2&#45;&gt;q0</title>
<path fill="none" stroke="black" d="M290.67,-15.89C269.29,-13.79 231.96,-11.79 200.97,-18.75 187.77,-21.71 174.05,-27.69 162.79,-33.48"/>
<polygon fill="black" stroke="black" points="161.31,-30.3 154.18,-38.14 164.64,-36.46 161.31,-30.3"/>
<text xml:space="preserve" text-anchor="middle" x="222.97" y="-21.6" font-family="Times,serif" font-size="12.00">1</text>
</g>
<!-- q3 -->
<g id="node10" class="node">
<title>q3</title>
<ellipse fill="khaki" stroke="black" cx="390.97" cy="-52" rx="18" ry="18"/>
<text xml:space="preserve" text-anchor="middle" x="390.97" y="-47.73" font-family="Times,serif" font-size="12.00">q3</text>
</g>
<!-- q2&#45;&gt;q3 -->
<g id="edge8" class="edge">
<title>q2&#45;&gt;q3</title>
<path fill="none" stroke="black" d="M325.78,-24.72C336.55,-29.3 351.08,-35.47 363.59,-40.79"/>
<polygon fill="black" stroke="black" points="361.96,-43.9 372.53,-44.59 364.7,-37.46 361.96,-43.9"/>
<text xml:space="preserve" text-anchor="middle" x="351.97" y="-39.89" font-family="Times,serif" font-size="12.00">0</text>
</g>
<!-- q3&#45;&gt;q4 -->
<g id="edge11" class="edge">
<title>q3&#45;&gt;q4</title>
<path fill="none" stroke="black" d="M409.33,-52C417.98,-52 428.74,-52 438.89,-52"/>
<polygon fill="black" stroke="black" points="438.85,-55.5 448.85,-52 438.85,-48.5 438.85,-55.5"/>
<text xml:space="preserve" text-anchor="middle" x="429.97" y="-54.85" font-family="Times,serif" font-size="12.00">1</text>
</g>
<!-- q3&#45;&gt;q1 -->
<g id="edge10" class="edge">
<title>q3&#45;&gt;q1</title>
<path fill="none" stroke="black" d="M372.89,-53.63C367.2,-54.13 360.81,-54.64 354.97,-55 319.87,-57.17 279.41,-58.54 252.85,-59.29"/>
<polygon fill="black" stroke="black" points="252.77,-55.79 242.87,-59.56 252.96,-62.79 252.77,-55.79"/>
<text xml:space="preserve" text-anchor="middle" x="308.97" y="-61.03" font-family="Times,serif" font-size="12.00">0</text>
</g>
<!-- r3&#45;&gt;r3 -->
<g id="edge19" class="edge">
<title>r3&#45;&gt;r3</title>
<path fill="none" stroke="black" d="M384.06,-155.04C382.65,-164.86 384.95,-174 390.97,-174 394.45,-174 396.69,-170.94 397.68,-166.47"/>
<polygon fill="black" stroke="black" points="401.18,-166.61 397.85,-156.55 394.18,-166.49 401.18,-166.61"/>
<text xml:space="preserve" text-anchor="middle" x="390.97" y="-176.85" font-family="Times,serif" font-size="12.00">0, 1</text>
</g>
</g>
</svg>
