<svg xmlns="http://www.w3.org/2000/svg" xmlns:xlink="http://www.w3.org/1999/xlink" width="360pt" height="349pt" viewBox="0.00 0.00 360.00 349.32">
<g id="graph0" class="graph" transform="scale(0.92626 0.92626) rotate(0) translate(4 373.13)">
<polygon fill="white" stroke="none" points="-4,4 -4,-373.13 384.66,-373.13 384.66,4 -4,4"/>
<text text-anchor="middle" x="190.33" y="-5.3" font-family="Helvetica,Arial,sans-serif" font-size="16.00">Generated Using gvdot</text>
<!-- course -->
<g id="node1" class="node">
<title>course</title>
<polygon fill="#bcee68" stroke="black" points="295.93,-164.8 239.43,-164.8 239.43,-128.8 295.93,-128.8 295.93,-164.8"/>
<text text-anchor="middle" x="267.68" y="-141" font-family="Helvetica,Arial,sans-serif" font-size="14.00">course</text>
</g>
<!-- 0 -->
<g id="node2" class="node">
<title>0</title>
<ellipse fill="lightblue" stroke="black" cx="347.84" cy="-154.92" rx="32.82" ry="18"/>
<text text-anchor="middle" x="347.84" y="-149.12" font-family="Helvetica,Arial,sans-serif" font-size="14.00">name</text>
</g>
<!-- course&#45;&#45;0 -->
<g id="edge1" class="edge">
<title>course--0</title>
<path fill="none" stroke="black" d="M296.17,-149.68C302.29,-150.3 308.8,-150.96 315.07,-151.6"/>
</g>
<!-- 1 -->
<g id="node3" class="node">
<title>1</title>
<ellipse fill="lightblue" stroke="black" cx="304.78" cy="-73.65" rx="29.41" ry="18"/>
<text text-anchor="middle" x="304.78" y="-67.85" font-family="Helvetica,Arial,sans-serif" font-size="14.00">code</text>
</g>
<!-- course&#45;&#45;1 -->
<g id="edge2" class="edge">
<title>course--1</title>
<path fill="none" stroke="black" d="M277.04,-128.34C282.84,-116.91 290.23,-102.33 295.93,-91.09"/>
</g>
<!-- institute -->
<g id="node4" class="node">
<title>institute</title>
<polygon fill="#bcee68" stroke="black" points="224.05,-290.41 161.55,-290.41 161.55,-254.41 224.05,-254.41 224.05,-290.41"/>
<text text-anchor="middle" x="192.8" y="-266.61" font-family="Helvetica,Arial,sans-serif" font-size="14.00">institute</text>
</g>
<!-- 2 -->
<g id="node5" class="node">
<title>2</title>
<ellipse fill="lightblue" stroke="black" cx="194.92" cy="-351.13" rx="32.82" ry="18"/>
<text text-anchor="middle" x="194.92" y="-345.33" font-family="Helvetica,Arial,sans-serif" font-size="14.00">name</text>
</g>
<!-- institute&#45;&#45;2 -->
<g id="edge3" class="edge">
<title>institute--2</title>
<path fill="none" stroke="black" d="M193.29,-290.66C193.63,-303.29 194.08,-320.03 194.42,-332.7"/>
</g>
<!-- student -->
<g id="node6" class="node">
<title>student</title>
<polygon fill="#bcee68" stroke="black" points="136.96,-162.81 76.71,-162.81 76.71,-126.81 136.96,-126.81 136.96,-162.81"/>
<text text-anchor="middle" x="106.84" y="-139.01" font-family="Helvetica,Arial,sans-serif" font-size="14.00">student</text>
</g>
<!-- 3 -->
<g id="node7" class="node">
<title>3</title>
<ellipse fill="lightblue" stroke="black" cx="32.82" cy="-183.25" rx="32.82" ry="18"/>
<text text-anchor="middle" x="32.82" y="-177.45" font-family="Helvetica,Arial,sans-serif" font-size="14.00">name</text>
</g>
<!-- student&#45;&#45;3 -->
<g id="edge4" class="edge">
<title>student--3</title>
<path fill="none" stroke="black" d="M76.31,-160.67C69.78,-164.06 62.97,-167.6 56.73,-170.84"/>
</g>
<!-- 4 -->
<g id="node8" class="node">
<title>4</title>
<ellipse fill="lightblue" stroke="black" cx="97.25" cy="-61.5" rx="40.62" ry="18"/>
<text text-anchor="middle" x="97.25" y="-55.7" font-family="Helvetica,Arial,sans-serif" font-size="14.00">number</text>
</g>
<!-- student&#45;&#45;4 -->
<g id="edge5" class="edge">
<title>student--4</title>
<path fill="none" stroke="black" d="M104.71,-126.32C103.12,-112.52 100.96,-93.73 99.37,-79.94"/>
</g>
<!-- 5 -->
<g id="node9" class="node">
<title>5</title>
<ellipse fill="lightblue" stroke="black" cx="36.21" cy="-105.75" rx="32.82" ry="18"/>
<text text-anchor="middle" x="36.21" y="-99.95" font-family="Helvetica,Arial,sans-serif" font-size="14.00">grade</text>
</g>
<!-- student&#45;&#45;5 -->
<g id="edge6" class="edge">
<title>student--5</title>
<path fill="none" stroke="black" d="M76.48,-128.02C70.79,-124.88 64.94,-121.64 59.51,-118.64"/>
</g>
<!-- C&#45;I -->
<g id="node10" class="node">
<title>C-I</title>
<polygon fill="sandybrown" stroke="lightgrey" points="264.42,-249.27 233.17,-231.27 264.42,-213.27 295.67,-231.27 264.42,-249.27"/>
<text text-anchor="middle" x="264.42" y="-225.47" font-family="Helvetica,Arial,sans-serif" font-size="14.00">C-I</text>
</g>
<!-- C&#45;I&#45;&#45;course -->
<g id="edge7" class="edge">
<title>C-I--course</title>
<path fill="none" stroke="black" d="M265.11,-213.36C265.66,-199.22 266.42,-179.55 266.97,-165.27"/>
<text text-anchor="middle" x="262.29" y="-191.01" font-family="Helvetica,Arial,sans-serif" font-size="14.00">n</text>
</g>
<!-- C&#45;I&#45;&#45;institute -->
<g id="edge8" class="edge">
<title>C-I--institute</title>
<path fill="none" stroke="black" d="M248.52,-240.4C241.44,-244.47 232.82,-249.42 224.5,-254.2"/>
<text text-anchor="middle" x="232.76" y="-249" font-family="Helvetica,Arial,sans-serif" font-size="14.00">1</text>
</g>
<!-- S&#45;I -->
<g id="node11" class="node">
<title>S-I</title>
<polygon fill="sandybrown" stroke="lightgrey" points="123.43,-246.06 92.86,-228.06 123.43,-210.06 153.99,-228.06 123.43,-246.06"/>
<text text-anchor="middle" x="123.43" y="-222.26" font-family="Helvetica,Arial,sans-serif" font-size="14.00">S-I</text>
</g>
<!-- S&#45;I&#45;&#45;institute -->
<g id="edge9" class="edge">
<title>S-I--institute</title>
<path fill="none" stroke="black" d="M138.48,-237.69C145.97,-242.47 155.28,-248.43 164.07,-254.04"/>
<text text-anchor="middle" x="147.52" y="-247.56" font-family="Helvetica,Arial,sans-serif" font-size="14.00">1</text>
</g>
<!-- S&#45;I&#45;&#45;student -->
<g id="edge10" class="edge">
<title>S-I--student</title>
<path fill="none" stroke="black" d="M120.15,-211.62C117.37,-197.68 113.4,-177.72 110.51,-163.25"/>
<text text-anchor="middle" x="111.58" y="-189.13" font-family="Helvetica,Arial,sans-serif" font-size="14.00">n</text>
</g>
<!-- S&#45;C -->
<g id="node12" class="node">
<title>S-C</title>
<polygon fill="sandybrown" stroke="lightgrey" points="188.09,-139.15 152.01,-121.15 188.09,-103.15 224.17,-121.15 188.09,-139.15"/>
<text text-anchor="middle" x="188.09" y="-115.35" font-family="Helvetica,Arial,sans-serif" font-size="14.00">S-C</text>
</g>
<!-- S&#45;C&#45;&#45;course -->
<g id="edge11" class="edge">
<title>S-C--course</title>
<path fill="none" stroke="black" d="M210.68,-128.43C219.51,-131.27 229.73,-134.56 239.06,-137.57"/>
<text text-anchor="middle" x="228.62" y="-134.7" font-family="Helvetica,Arial,sans-serif" font-size="14.00">n</text>
</g>
<!-- S&#45;C&#45;&#45;student -->
<g id="edge12" class="edge">
<title>S-C--student</title>
<path fill="none" stroke="black" d="M165.02,-127.86C156.39,-130.38 146.45,-133.27 137.25,-135.95"/>
<text text-anchor="middle" x="145.14" y="-133.61" font-family="Helvetica,Arial,sans-serif" font-size="14.00">m</text>
</g>
</g>
</svg>