<?xml version="1.0" encoding="UTF-8" standalone="no"?>
<!DOCTYPE svg PUBLIC "-//W3C//DTD SVG 1.1//EN"
 "http://www.w3.org/Graphics/SVG/1.1/DTD/svg11.dtd">
<!-- Generated by graphviz version 14.1.2 (20260124.0452)
 -->
<!-- Pages: 1 -->
<svg width="76pt" height="156pt"
 viewBox="0.00 0.00 76.00 156.00" xmlns="http://www.w3.org/2000/svg" xmlns:xlink="http://www.w3.org/1999/xlink">
<g id="graph0" class="graph" transform="scale(1 1) rotate(0) translate(4 151.6)">
<polygon fill="white" stroke="none" points="-4,4 -4,-151.6 72.2,-151.6 72.2,4 -4,4"/>
<!-- 2 -->
<g id="node1" class="node">
<title>2</title>
<ellipse fill="#001122" stroke="#000000" stroke-width="1.5" cx="33.6" cy="-135" rx="12.6" ry="12.6"/>
<text xml:space="preserve" text-anchor="middle" x="33.6" y="-129.2" font-family="Helvetica,sans-Serif" font-size="14.00" fill="#eeeeee">2</text>
</g>
<!-- 1 -->
<g id="node2" class="node">
<title>1</title>
<ellipse fill="#001122" stroke="#000000" stroke-width="1.5" cx="12.6" cy="-73.8" rx="12.6" ry="12.6"/>
<text xml:space="preserve" text-anchor="middle" x="12.6" y="-68" font-family="Helvetica,sans-Serif" font-size="14.00" fill="#eeeeee">1</text>
</g>
<!-- 2&#45;&gt;1 -->
<g id="edge1" class="edge">
<title>2&#45;&gt;1</title>
<path fill="none" stroke="#000000" stroke-width="1.5" d="M29.55,-122.59C25.83,-112.1 20.35,-96.65 16.64,-86.18"/>
</g>
<!-- 4 -->
<g id="node3" class="node">
<title>4</title>
<ellipse fill="#001122" stroke="#000000" stroke-width="1.5" cx="55.6" cy="-73.8" rx="12.6" ry="12.6"/>
<text xml:space="preserve" text-anchor="middle" x="55.6" y="-68" font-family="Helvetica,sans-Serif" font-size="14.00" fill="#eeeeee">4</text>
</g>
<!-- 2&#45;&gt;4 -->
<g id="edge2" class="edge">
<title>2&#45;&gt;4</title>
<path fill="none" stroke="#000000" stroke-width="1.5" d="M37.84,-122.59C41.74,-112.1 47.48,-96.65 51.37,-86.18"/>
</g>
<!-- 1&#45;&gt;4 -->
<g id="edge4" class="edge">
<title>1&#45;&gt;4</title>
</g>
<!-- 3 -->
<g id="node4" class="node">
<title>3</title>
<ellipse fill="#f31020" stroke="#000000" stroke-width="1.5" cx="55.6" cy="-12.6" rx="12.6" ry="12.6"/>
<text xml:space="preserve" text-anchor="middle" x="55.6" y="-6.8" font-family="Helvetica,sans-Serif" font-size="14.00" fill="#eeeeee">3</text>
</g>
<!-- 4&#45;&gt;3 -->
<g id="edge3" class="edge">
<title>4&#45;&gt;3</title>
<path fill="none" stroke="#000000" stroke-width="1.5" d="M55.6,-60.53C55.6,-50.37 55.6,-36.01 55.6,-25.85"/>
</g>
</g>
</svg>
