<?xml version="1.0" encoding="UTF-8" standalone="no"?>
<!DOCTYPE svg PUBLIC "-//W3C//DTD SVG 1.1//EN"
 "http://www.w3.org/Graphics/SVG/1.1/DTD/svg11.dtd">
<!-- Generated by graphviz version 14.1.2 (20260124.0452)
 -->
<!-- Pages: 1 -->
<svg width="294pt" height="122pt"
 viewBox="0.00 0.00 294.00 122.00" xmlns="http://www.w3.org/2000/svg" xmlns:xlink="http://www.w3.org/1999/xlink">
<g id="graph0" class="graph" transform="scale(1 1) rotate(0) translate(4 117.5)">
<polygon fill="antiquewhite" stroke="none" points="-4,4 -4,-117.5 290,-117.5 290,4 -4,4"/>
<text xml:space="preserve" text-anchor="middle" x="143" y="-7.2" font-family="Times,serif" font-size="14.00">Many ways to set attributes</text>
<g id="clust1" class="cluster">
<title>cluster_1</title>
<polygon fill="#8b7d6b" stroke="black" points="136,-32.5 136,-105.5 278,-105.5 278,-32.5 136,-32.5"/>
<text xml:space="preserve" text-anchor="middle" x="207" y="-90.1" font-family="sans-serif" font-size="12.00">Clustered</text>
</g>
<!-- a -->
<g id="node1" class="node">
<title>a</title>
<ellipse fill="none" stroke="black" cx="18" cy="-58.5" rx="18" ry="18"/>
<text xml:space="preserve" text-anchor="middle" x="18" y="-53.45" font-family="Times,serif" font-size="14.00">A</text>
</g>
<!-- b -->
<g id="node2" class="node">
<title>b</title>
<ellipse fill="none" stroke="black" cx="90" cy="-58.5" rx="18" ry="18"/>
<text xml:space="preserve" text-anchor="middle" x="90" y="-53.45" font-family="Times,serif" font-size="14.00" fill="green">B</text>
</g>
<!-- a&#45;&gt;b -->
<g id="edge1" class="edge">
<title>a&#45;&gt;b</title>
<path fill="none" stroke="black" stroke-dasharray="5,2" d="M36.3,-58.5C43.59,-58.5 52.27,-58.5 60.46,-58.5"/>
<polygon fill="black" stroke="black" points="60.38,-62 70.38,-58.5 60.38,-55 60.38,-62"/>
</g>
<!-- c -->
<g id="node3" class="node">
<title>c</title>
<ellipse fill="khaki" stroke="black" cx="162" cy="-58.5" rx="18" ry="18"/>
<text xml:space="preserve" text-anchor="middle" x="162" y="-53.45" font-family="Times,serif" font-size="14.00">C</text>
</g>
<!-- b&#45;&gt;c -->
<g id="edge2" class="edge">
<title>b&#45;&gt;c</title>
<path fill="none" stroke="red" stroke-dasharray="5,2" d="M108.3,-58.5C115.59,-58.5 124.27,-58.5 132.46,-58.5"/>
<polygon fill="red" stroke="red" points="132.38,-62 142.38,-58.5 132.38,-55 132.38,-62"/>
</g>
<!-- last -->
<g id="node4" class="node">
<title>last</title>
<polygon fill="none" stroke="black" points="270,-76.5 216,-76.5 216,-40.5 270,-40.5 270,-76.5"/>
<text xml:space="preserve" text-anchor="middle" x="243" y="-53.45" font-family="Times,serif" font-size="14.00">last</text>
</g>
<!-- c&#45;&gt;last -->
<g id="edge3" class="edge">
<title>c&#45;&gt;last</title>
<path fill="none" stroke="black" stroke-dasharray="5,2" d="M180.14,-58.5C186.77,-58.5 194.65,-58.5 202.53,-58.5"/>
<polygon fill="black" stroke="black" points="202.67,-58.5 208.67,-54.5 214.67,-58.5 208.67,-62.5 202.67,-58.5"/>
</g>
</g>
</svg>
