<?xml version="1.0" encoding="UTF-8" standalone="no"?>
<!DOCTYPE svg PUBLIC "-//W3C//DTD SVG 1.1//EN"
 "http://www.w3.org/Graphics/SVG/1.1/DTD/svg11.dtd">
<!-- Generated by graphviz version 14.1.2 (20260124.0452)
 -->
<!-- Pages: 1 -->
<svg width="190pt" height="71pt"
 viewBox="0.00 0.00 190.00 71.00" xmlns="http://www.w3.org/2000/svg" xmlns:xlink="http://www.w3.org/1999/xlink">
<g id="graph0" class="graph" transform="scale(1 1) rotate(0) translate(4 67.45)">
<polygon fill="white" stroke="none" points="-4,4 -4,-67.45 185.5,-67.45 185.5,4 -4,4"/>
<!-- a -->
<g id="node1" class="node">
<title>a</title>
<ellipse fill="none" stroke="black" cx="27" cy="-26.54" rx="27" ry="18"/>
<text xml:space="preserve" text-anchor="middle" x="27" y="-21.49" font-family="Times,serif" font-size="14.00">a</text>
</g>
<!-- b -->
<g id="node2" class="node">
<title>b</title>
<ellipse fill="none" stroke="black" cx="154.5" cy="-26.54" rx="27" ry="18"/>
<text xml:space="preserve" text-anchor="middle" x="154.5" y="-21.49" font-family="Times,serif" font-size="14.00">b</text>
</g>
<!-- a&#45;&#45;b -->
<g id="edge1" class="edge">
<title>a&#45;&#45;b</title>
<path fill="none" stroke="red" d="M49.41,-37.24C56.43,-40.21 64.39,-43.04 72,-44.54 88.35,-47.75 93.15,-47.75 109.5,-44.54 117.11,-43.04 125.07,-40.21 132.09,-37.24"/>
<text xml:space="preserve" text-anchor="middle" x="90.75" y="-50.15" font-family="Times,serif" font-size="14.00">first</text>
</g>
<!-- a&#45;&#45;b -->
<g id="edge2" class="edge">
<title>a&#45;&#45;b</title>
<path fill="none" stroke="green" d="M54.05,-24.81C59.95,-24.49 66.19,-24.2 72,-24.04 88.66,-23.56 92.84,-23.56 109.5,-24.04 115.31,-24.2 121.55,-24.49 127.45,-24.81"/>
<text xml:space="preserve" text-anchor="middle" x="90.75" y="-27.24" font-family="Times,serif" font-size="14.00">second</text>
</g>
<!-- a&#45;&#45;b -->
<g id="edge3" class="edge">
<title>a&#45;&#45;b</title>
<path fill="none" stroke="blue" d="M46.87,-13.83C54.36,-9.51 63.26,-5.22 72,-3.04 88.17,1.01 93.33,1.01 109.5,-3.04 118.24,-5.22 127.14,-9.51 134.63,-13.83"/>
<text xml:space="preserve" text-anchor="middle" x="90.75" y="-6.24" font-family="Times,serif" font-size="14.00">third</text>
</g>
</g>
</svg>
