<?xml version="1.0" encoding="UTF-8" standalone="no"?>
<!DOCTYPE svg PUBLIC "-//W3C//DTD SVG 1.1//EN"
 "http://www.w3.org/Graphics/SVG/1.1/DTD/svg11.dtd">
<!-- Generated by graphviz version 14.1.2 (20260124.0452)
 -->
<!-- Pages: 1 -->
<svg width="130pt" height="98pt"
 viewBox="0.00 0.00 130.00 98.00" xmlns="http://www.w3.org/2000/svg" xmlns:xlink="http://www.w3.org/1999/xlink">
<g id="graph0" class="graph" transform="scale(1 1) rotate(0) translate(4 94)">
<polygon fill="white" stroke="none" points="-4,4 -4,-94 126.04,-94 126.04,4 -4,4"/>
<!-- _nonce_1 -->
<g id="node1" class="node">
<title>_nonce_1</title>
<polygon fill="khaki" stroke="none" points="0.72,-45.72 0,-45.72 0,-44.28 0.72,-44.28 0.72,-45.72"/>
</g>
<!-- s0 -->
<g id="node2" class="node">
<title>s0</title>
<ellipse fill="khaki" stroke="black" cx="54.72" cy="-45" rx="18" ry="18"/>
<text xml:space="preserve" text-anchor="middle" x="54.72" y="-40.73" font-family="Times,serif" font-size="12.00">s0</text>
</g>
<!-- _nonce_1&#45;&gt;s0 -->
<g id="edge1" class="edge">
<title>_nonce_1&#45;&gt;s0</title>
<path fill="none" stroke="black" d="M0.87,-45C2.28,-45 13.31,-45 24.93,-45"/>
<polygon fill="black" stroke="black" points="24.9,-48.5 34.9,-45 24.9,-41.5 24.9,-48.5"/>
</g>
<!-- r0 -->
<g id="node3" class="node">
<title>r0</title>
<text xml:space="preserve" text-anchor="middle" x="115.38" y="-67.72" font-family="Times,serif" font-size="12.00">...</text>
</g>
<!-- s0&#45;&gt;r0 -->
<g id="edge2" class="edge">
<title>s0&#45;&gt;r0</title>
<path fill="none" stroke="black" d="M71.44,-52.24C79.84,-56.1 90.14,-60.84 98.56,-64.72"/>
<polygon fill="black" stroke="black" points="96.86,-67.79 107.41,-68.79 99.79,-61.43 96.86,-67.79"/>
</g>
<!-- q0 -->
<g id="node4" class="node">
<title>q0</title>
<text xml:space="preserve" text-anchor="middle" x="115.38" y="-13.72" font-family="Times,serif" font-size="12.00">...</text>
</g>
<!-- s0&#45;&gt;q0 -->
<g id="edge3" class="edge">
<title>s0&#45;&gt;q0</title>
<path fill="none" stroke="black" d="M71.44,-37.76C79.84,-33.9 90.14,-29.16 98.56,-25.28"/>
<polygon fill="black" stroke="black" points="99.79,-28.57 107.41,-21.21 96.86,-22.21 99.79,-28.57"/>
</g>
</g>
</svg>
