<?xml version="1.0" encoding="UTF-8" standalone="no"?>
<!DOCTYPE svg PUBLIC "-//W3C//DTD SVG 1.1//EN"
 "http://www.w3.org/Graphics/SVG/1.1/DTD/svg11.dtd">
<!-- Generated by graphviz version 14.1.2 (20260124.0452)
 -->
<!-- Pages: 1 -->
<svg width="378pt" height="62pt"
 viewBox="0.00 0.00 378.00 62.00" xmlns="http://www.w3.org/2000/svg" xmlns:xlink="http://www.w3.org/1999/xlink">
<g id="graph0" class="graph" transform="scale(1 1) rotate(0) translate(4 58.45)">
<polygon fill="white" stroke="none" points="-4,4 -4,-58.45 374.05,-58.45 374.05,4 -4,4"/>
<!-- T3 -->
<g id="node1" class="node">
<title>T3</title>
<polygon fill="#10a010" stroke="#10a010" points="66.45,-36.45 0,-36.45 0,-18 66.45,-18 66.45,-36.45"/>
<text xml:space="preserve" text-anchor="middle" x="33.23" y="-23.35" font-family="sans-serif" font-size="10.00">Build dev env</text>
</g>
<!-- T4 -->
<g id="node2" class="node">
<title>T4</title>
<polygon fill="#10a010" stroke="#10a010" points="159.15,-54.45 84.45,-54.45 84.45,-36 159.15,-36 159.15,-54.45"/>
<text xml:space="preserve" text-anchor="middle" x="121.8" y="-41.35" font-family="sans-serif" font-size="10.00">Implement core</text>
</g>
<!-- T3&#45;&gt;T4 -->
<g id="edge1" class="edge">
<title>T3&#45;&gt;T4</title>
<path fill="none" stroke="black" d="M66.46,-33.93C69.44,-34.55 72.49,-35.18 75.55,-35.82"/>
<polygon fill="black" stroke="black" points="74.8,-38.34 82.68,-37.3 75.87,-33.2 74.8,-38.34"/>
</g>
<!-- T5 -->
<g id="node3" class="node">
<title>T5</title>
<polygon fill="#ffbf00" stroke="#ffbf00" points="155.03,-18.45 88.58,-18.45 88.58,0 155.03,0 155.03,-18.45"/>
<text xml:space="preserve" text-anchor="middle" x="121.8" y="-5.35" font-family="sans-serif" font-size="10.00">Implement UI</text>
</g>
<!-- T3&#45;&gt;T5 -->
<g id="edge2" class="edge">
<title>T3&#45;&gt;T5</title>
<path fill="none" stroke="black" d="M66.46,-20.52C70.8,-19.62 75.29,-18.69 79.75,-17.76"/>
<polygon fill="black" stroke="black" points="79.96,-20.4 86.77,-16.3 78.89,-15.26 79.96,-20.4"/>
</g>
<!-- T6 -->
<g id="node4" class="node">
<title>T6</title>
<polygon fill="#10a010" stroke="#10a010" points="266.85,-54.45 177.15,-54.45 177.15,-36 266.85,-36 266.85,-54.45"/>
<text xml:space="preserve" text-anchor="middle" x="222" y="-41.35" font-family="sans-serif" font-size="10.00">Write system tests</text>
</g>
<!-- T4&#45;&gt;T6 -->
<g id="edge3" class="edge">
<title>T4&#45;&gt;T6</title>
<path fill="none" stroke="black" d="M159.65,-45.23C162.33,-45.23 165.08,-45.23 167.83,-45.23"/>
<polygon fill="black" stroke="black" points="167.65,-47.85 175.15,-45.23 167.65,-42.6 167.65,-47.85"/>
</g>
<!-- T7 -->
<g id="node5" class="node">
<title>T7</title>
<polygon fill="#ffbf00" stroke="#ffbf00" points="244.72,-18.45 199.28,-18.45 199.28,0 244.72,0 244.72,-18.45"/>
<text xml:space="preserve" text-anchor="middle" x="222" y="-5.35" font-family="sans-serif" font-size="10.00">Integrate</text>
</g>
<!-- T4&#45;&gt;T7 -->
<g id="edge4" class="edge">
<title>T4&#45;&gt;T7</title>
<path fill="none" stroke="black" d="M149.12,-35.58C161.89,-30.9 177.3,-25.25 190.57,-20.38"/>
<polygon fill="black" stroke="black" points="191.37,-22.88 197.51,-17.84 189.57,-17.95 191.37,-22.88"/>
</g>
<!-- T5&#45;&gt;T7 -->
<g id="edge5" class="edge">
<title>T5&#45;&gt;T7</title>
<path fill="none" stroke="black" d="M155.5,-9.22C166.66,-9.22 179.09,-9.22 190.11,-9.22"/>
<polygon fill="black" stroke="black" points="189.95,-11.85 197.45,-9.23 189.95,-6.6 189.95,-11.85"/>
</g>
<!-- T8 -->
<g id="node6" class="node">
<title>T8</title>
<polygon fill="#c00000" stroke="#c00000" points="370.05,-36.45 284.85,-36.45 284.85,-18 370.05,-18 370.05,-36.45"/>
<text xml:space="preserve" text-anchor="middle" x="327.45" y="-23.35" font-family="sans-serif" font-size="10.00" fill="#e8e8e8">Run system tests</text>
</g>
<!-- T6&#45;&gt;T8 -->
<g id="edge6" class="edge">
<title>T6&#45;&gt;T8</title>
<path fill="none" stroke="black" d="M267.17,-37.54C269.94,-37.06 272.73,-36.57 275.53,-36.09"/>
<polygon fill="black" stroke="black" points="275.97,-38.67 282.91,-34.8 275.07,-33.5 275.97,-38.67"/>
</g>
<!-- T7&#45;&gt;T8 -->
<g id="edge7" class="edge">
<title>T7&#45;&gt;T8</title>
<path fill="none" stroke="black" d="M245.19,-13.09C254.28,-14.67 265.2,-16.57 276.04,-18.45"/>
<polygon fill="black" stroke="black" points="275.35,-21 283.19,-19.7 276.25,-15.83 275.35,-21"/>
</g>
</g>
</svg>
