<?xml version="1.0" encoding="UTF-8" standalone="no"?>
<!DOCTYPE svg PUBLIC "-//W3C//DTD SVG 1.1//EN"
 "http://www.w3.org/Graphics/SVG/1.1/DTD/svg11.dtd">
<!-- Generated by graphviz version 14.1.2 (20260124.0452)
 -->
<!-- Pages: 1 -->
<svg width="185pt" height="111pt"
 viewBox="0.00 0.00 185.00 111.00" xmlns="http://www.w3.org/2000/svg" xmlns:xlink="http://www.w3.org/1999/xlink">
<g id="graph0" class="graph" transform="scale(1 1) rotate(0) translate(4 106.57)">
<polygon fill="white" stroke="none" points="-4,4 -4,-106.57 180.64,-106.57 180.64,4 -4,4"/>
<text xml:space="preserve" text-anchor="middle" x="88.32" y="-85.27" font-family="Times,serif" font-size="14.00">Rolling Back</text>
<!-- old -->
<g id="node1" class="node">
<title>old</title>
<ellipse fill="none" stroke="green" cx="27" cy="-60.07" rx="27" ry="18"/>
<text xml:space="preserve" text-anchor="start" x="20.62" y="-56.02" font-family="Times,serif" font-size="14.00">d</text>
<text xml:space="preserve" text-anchor="start" x="27.38" y="-56.02" font-family="Times,serif" baseline-shift="sub" font-size="14.00">k</text>
</g>
<!-- new -->
<g id="node2" class="node">
<title>new</title>
<ellipse fill="none" stroke="red" cx="148.32" cy="-60.07" rx="28.32" ry="18"/>
<text xml:space="preserve" text-anchor="start" x="135.57" y="-56.02" font-family="Times,serif" font-size="14.00">d</text>
<text xml:space="preserve" text-anchor="start" x="142.32" y="-56.02" font-family="Times,serif" baseline-shift="sub" font-size="14.00">k+1</text>
</g>
<!-- old&#45;&gt;new -->
<g id="edge1" class="edge">
<title>old&#45;&gt;new</title>
<path fill="none" stroke="black" d="M54.48,-60.07C70.29,-60.07 90.65,-60.07 108.28,-60.07"/>
<polygon fill="black" stroke="black" points="108.16,-63.57 118.16,-60.07 108.16,-56.57 108.16,-63.57"/>
<text xml:space="preserve" text-anchor="middle" x="87" y="-63.27" font-family="Times,serif" font-size="14.00">apply</text>
</g>
<!-- new&#45;&gt;old -->
<g id="edge2" class="edge">
<title>new:s&#45;&gt;old:s</title>
<path fill="none" stroke="black" d="M148.32,-40.61C148.32,9.3 44.34,12.9 28.91,-29.63"/>
<polygon fill="black" stroke="black" points="25.5,-28.81 27.26,-39.25 32.4,-29.99 25.5,-28.81"/>
<text xml:space="preserve" text-anchor="middle" x="87" y="-4.49" font-family="Times,serif" font-size="14.00">undo</text>
</g>
</g>
</svg>
