<?xml version="1.0" encoding="UTF-8" standalone="no"?>
<!DOCTYPE svg PUBLIC "-//W3C//DTD SVG 1.1//EN"
 "http://www.w3.org/Graphics/SVG/1.1/DTD/svg11.dtd">
<!-- Generated by graphviz version 14.1.2 (20260124.0452)
 -->
<!-- Pages: 1 -->
<svg width="189pt" height="219pt"
 viewBox="0.00 0.00 189.00 219.00" xmlns="http://www.w3.org/2000/svg" xmlns:xlink="http://www.w3.org/1999/xlink">
<g id="graph0" class="graph" transform="scale(1 1) rotate(0) translate(4 214.6)">
<polygon fill="white" stroke="none" points="-4,4 -4,-214.6 185.27,-214.6 185.27,4 -4,4"/>
<!-- T3 -->
<g id="node1" class="node">
<title>T3</title>
<polygon fill="#10a010" stroke="#10a010" points="133.28,-210.6 59.62,-210.6 59.62,-184.95 133.28,-184.95 133.28,-210.6"/>
<text xml:space="preserve" text-anchor="middle" x="96.45" y="-193.9" font-family="sans-serif" font-size="10.00">Build dev env</text>
</g>
<!-- T4 -->
<g id="node2" class="node">
<title>T4</title>
<polygon fill="#10a010" stroke="#10a010" points="89.4,-148.95 7.5,-148.95 7.5,-123.3 89.4,-123.3 89.4,-148.95"/>
<text xml:space="preserve" text-anchor="middle" x="48.45" y="-132.25" font-family="sans-serif" font-size="10.00">Implement core</text>
</g>
<!-- T3&#45;&gt;T4 -->
<g id="edge1" class="edge">
<title>T3&#45;&gt;T4</title>
<path fill="none" stroke="black" d="M86.74,-184.7C80.56,-177.02 72.39,-166.87 65.18,-157.92"/>
<polygon fill="black" stroke="black" points="68.09,-155.95 59.1,-150.36 62.64,-160.34 68.09,-155.95"/>
</g>
<!-- T5 -->
<g id="node3" class="node">
<title>T5</title>
<polygon fill="#ffbf00" stroke="#ffbf00" points="181.27,-148.95 107.62,-148.95 107.62,-123.3 181.27,-123.3 181.27,-148.95"/>
<text xml:space="preserve" text-anchor="middle" x="144.45" y="-132.25" font-family="sans-serif" font-size="10.00">Implement UI</text>
</g>
<!-- T3&#45;&gt;T5 -->
<g id="edge2" class="edge">
<title>T3&#45;&gt;T5</title>
<path fill="none" stroke="black" d="M106.16,-184.7C112.34,-177.02 120.51,-166.87 127.72,-157.92"/>
<polygon fill="black" stroke="black" points="130.26,-160.34 133.8,-150.36 124.81,-155.95 130.26,-160.34"/>
</g>
<!-- T6 -->
<g id="node4" class="node">
<title>T6</title>
<polygon fill="#10a010" stroke="#10a010" points="96.9,-87.3 0,-87.3 0,-61.65 96.9,-61.65 96.9,-87.3"/>
<text xml:space="preserve" text-anchor="middle" x="48.45" y="-70.6" font-family="sans-serif" font-size="10.00">Write system tests</text>
</g>
<!-- T4&#45;&gt;T6 -->
<g id="edge3" class="edge">
<title>T4&#45;&gt;T6</title>
<path fill="none" stroke="black" d="M48.45,-123.05C48.45,-116.1 48.45,-107.12 48.45,-98.84"/>
<polygon fill="black" stroke="black" points="51.95,-99.04 48.45,-89.04 44.95,-99.04 51.95,-99.04"/>
</g>
<!-- T7 -->
<g id="node5" class="node">
<title>T7</title>
<polygon fill="#ffbf00" stroke="#ffbf00" points="167.77,-87.3 115.12,-87.3 115.12,-61.65 167.77,-61.65 167.77,-87.3"/>
<text xml:space="preserve" text-anchor="middle" x="141.45" y="-70.6" font-family="sans-serif" font-size="10.00">Integrate</text>
</g>
<!-- T4&#45;&gt;T7 -->
<g id="edge4" class="edge">
<title>T4&#45;&gt;T7</title>
<path fill="none" stroke="black" d="M67.27,-123.05C80.42,-114.62 98.21,-103.21 113.07,-93.68"/>
<polygon fill="black" stroke="black" points="114.54,-96.9 121.06,-88.55 110.76,-91 114.54,-96.9"/>
</g>
<!-- T5&#45;&gt;T7 -->
<g id="edge5" class="edge">
<title>T5&#45;&gt;T7</title>
<path fill="none" stroke="black" d="M143.84,-123.05C143.49,-116.1 143.04,-107.12 142.63,-98.84"/>
<polygon fill="black" stroke="black" points="146.13,-98.85 142.13,-89.04 139.14,-99.2 146.13,-98.85"/>
</g>
<!-- T8 -->
<g id="node6" class="node">
<title>T8</title>
<polygon fill="#c00000" stroke="#c00000" points="140.65,-25.65 48.25,-25.65 48.25,0 140.65,0 140.65,-25.65"/>
<text xml:space="preserve" text-anchor="middle" x="94.45" y="-8.95" font-family="sans-serif" font-size="10.00" fill="#e8e8e8">Run system tests</text>
</g>
<!-- T6&#45;&gt;T8 -->
<g id="edge6" class="edge">
<title>T6&#45;&gt;T8</title>
<path fill="none" stroke="black" d="M57.76,-61.4C63.62,-53.8 71.35,-43.79 78.2,-34.9"/>
<polygon fill="black" stroke="black" points="80.9,-37.13 84.23,-27.08 75.35,-32.86 80.9,-37.13"/>
</g>
<!-- T7&#45;&gt;T8 -->
<g id="edge7" class="edge">
<title>T7&#45;&gt;T8</title>
<path fill="none" stroke="black" d="M131.94,-61.4C125.95,-53.8 118.06,-43.79 111.06,-34.9"/>
<polygon fill="black" stroke="black" points="113.82,-32.76 104.88,-27.07 108.32,-37.09 113.82,-32.76"/>
</g>
</g>
</svg>

