<?xml version="1.0" encoding="UTF-8" standalone="no"?>
<!DOCTYPE svg PUBLIC "-//W3C//DTD SVG 1.1//EN"
 "http://www.w3.org/Graphics/SVG/1.1/DTD/svg11.dtd">
<!-- Generated by graphviz version 14.1.2 (20260124.0452)
 -->
<!-- Pages: 1 -->
<svg width="380pt" height="101pt"
 viewBox="0.00 0.00 380.00 101.00" xmlns="http://www.w3.org/2000/svg" xmlns:xlink="http://www.w3.org/1999/xlink">
<g id="graph0" class="graph" transform="scale(1 1) rotate(0) translate(4 96.5)">
<polygon fill="white" stroke="none" points="-4,4 -4,-96.5 376.16,-96.5 376.16,4 -4,4"/>
<text xml:space="preserve" text-anchor="middle" x="186.08" y="-7.2" font-family="Times,serif" font-size="14.00">Basic Construction</text>
<g id="clust1" class="cluster">
<title>cluster_1</title>
<path fill="none" stroke="orange" d="M215.16,-32.5C215.16,-32.5 352.16,-32.5 352.16,-32.5 358.16,-32.5 364.16,-38.5 364.16,-44.5 364.16,-44.5 364.16,-72.5 364.16,-72.5 364.16,-78.5 358.16,-84.5 352.16,-84.5 352.16,-84.5 215.16,-84.5 215.16,-84.5 209.16,-84.5 203.16,-78.5 203.16,-72.5 203.16,-72.5 203.16,-44.5 203.16,-44.5 203.16,-38.5 209.16,-32.5 215.16,-32.5"/>
</g>
<!-- a -->
<g id="node1" class="node">
<title>a</title>
<polygon fill="none" stroke="black" points="58,-76.5 0,-76.5 0,-40.5 58,-40.5 58,-76.5"/>
<text xml:space="preserve" text-anchor="middle" x="29" y="-53.45" font-family="Times,serif" font-size="14.00">Node A</text>
</g>
<!-- b -->
<g id="node2" class="node">
<title>b</title>
<ellipse fill="none" stroke="black" stroke-width="1.75" cx="134.58" cy="-58.5" rx="39.58" ry="18"/>
<text xml:space="preserve" text-anchor="middle" x="134.58" y="-53.45" font-family="Times,serif" font-size="14.00">Node B</text>
</g>
<!-- a&#45;&gt;b -->
<g id="edge1" class="edge">
<title>a&#45;&gt;b</title>
<path fill="none" stroke="blue" stroke-dasharray="5,2" d="M58.3,-58.5C65.96,-58.5 74.49,-58.5 82.98,-58.5"/>
<polygon fill="blue" stroke="blue" points="82.93,-62 92.93,-58.5 82.93,-55 82.93,-62"/>
</g>
<!-- c -->
<g id="node3" class="node">
<title>c</title>
<ellipse fill="orange" stroke="orange" cx="238.16" cy="-58.5" rx="27" ry="18"/>
<text xml:space="preserve" text-anchor="middle" x="238.16" y="-53.45" font-family="Times,serif" font-size="14.00">c</text>
</g>
<!-- b&#45;&gt;c -->
<g id="edge2" class="edge">
<title>b&#45;&gt;c</title>
<path fill="none" stroke="black" d="M174.85,-58.5C182.96,-58.5 191.47,-58.5 199.51,-58.5"/>
<polygon fill="black" stroke="black" points="199.34,-62 209.34,-58.5 199.34,-55 199.34,-62"/>
<text xml:space="preserve" text-anchor="middle" x="192.66" y="-61.7" font-family="Times,serif" font-size="14.00"> B/C </text>
</g>
<!-- d -->
<g id="node4" class="node">
<title>d</title>
<ellipse fill="none" stroke="black" cx="329.16" cy="-58.5" rx="27" ry="18"/>
<text xml:space="preserve" text-anchor="middle" x="329.16" y="-53.45" font-family="Times,serif" font-size="14.00">d</text>
</g>
<!-- c&#45;&gt;d -->
<g id="edge3" class="edge">
<title>c&#45;&gt;d</title>
<path fill="none" stroke="black" d="M265.38,-58.5C273.28,-58.5 282.1,-58.5 290.58,-58.5"/>
<polygon fill="black" stroke="black" points="290.3,-62 300.3,-58.5 290.3,-55 290.3,-62"/>
</g>
</g>
</svg>
