<?xml version="1.0" encoding="UTF-8" standalone="no"?>
<!DOCTYPE svg PUBLIC "-//W3C//DTD SVG 1.1//EN"
 "http://www.w3.org/Graphics/SVG/1.1/DTD/svg11.dtd">
<!-- Generated by graphviz version 14.1.2 (20260124.0452)
 -->
<!-- Pages: 1 -->
<svg width="264pt" height="123pt"
 viewBox="0.00 0.00 264.00 123.00" xmlns="http://www.w3.org/2000/svg" xmlns:xlink="http://www.w3.org/1999/xlink">
<g id="graph0" class="graph" transform="scale(1 1) rotate(0) translate(4 118.5)">
<polygon fill="antiquewhite" stroke="none" points="-4,4 -4,-118.5 260.01,-118.5 260.01,4 -4,4"/>
<text xml:space="preserve" text-anchor="middle" x="128.01" y="-97.2" font-family="Times,serif" font-size="14.00">Choices</text>
<!-- 1 -->
<g id="node1" class="node">
<title>1</title>
<ellipse fill="none" stroke="black" cx="18" cy="-34" rx="18" ry="18"/>
<text xml:space="preserve" text-anchor="middle" x="18" y="-30.12" font-family="Times,serif" font-size="10.00">First</text>
</g>
<!-- 2 -->
<g id="node2" class="node">
<title>2</title>
<ellipse fill="none" stroke="black" cx="124.63" cy="-72" rx="18" ry="18"/>
<text xml:space="preserve" text-anchor="middle" x="124.63" y="-68.12" font-family="Times,serif" font-size="10.00">Second</text>
</g>
<!-- 1&#45;&#45;2 -->
<g id="edge1" class="edge">
<title>1&#45;&#45;2</title>
<path fill="none" stroke="black" d="M35.35,-39.94C55.01,-47.08 87.79,-58.98 107.4,-66.1"/>
<text xml:space="preserve" text-anchor="middle" x="64.12" y="-55.15" font-family="Times,serif" font-size="8.00" fill="green">steady</text>
</g>
<!-- distraction -->
<g id="node4" class="node">
<title>distraction</title>
<polygon fill="none" stroke="black" points="124.63,-36 92.25,-18 124.63,0 157.01,-18 124.63,-36"/>
<text xml:space="preserve" text-anchor="middle" x="124.63" y="-14.12" font-family="Times,serif" font-size="10.00">distraction</text>
</g>
<!-- 1&#45;&#45;distraction -->
<g id="edge3" class="edge">
<title>1&#45;&#45;distraction</title>
<path fill="none" stroke="black" d="M36.28,-31.36C53.23,-28.77 79.26,-24.79 98.49,-21.84"/>
</g>
<!-- 3 -->
<g id="node3" class="node">
<title>3</title>
<ellipse fill="none" stroke="black" cx="238.01" cy="-72" rx="18" ry="18"/>
<text xml:space="preserve" text-anchor="middle" x="238.01" y="-68.12" font-family="Times,serif" font-size="10.00">Third</text>
</g>
<!-- 2&#45;&#45;3 -->
<g id="edge2" class="edge">
<title>2&#45;&#45;3</title>
<path fill="none" stroke="black" d="M143.03,-72C163.96,-72 198.86,-72 219.73,-72"/>
<text xml:space="preserve" text-anchor="middle" x="188.51" y="-74.15" font-family="Times,serif" font-size="8.00" fill="green">progress</text>
</g>
</g>
</svg>
