<?xml version="1.0" encoding="UTF-8" standalone="no"?>
<!DOCTYPE svg PUBLIC "-//W3C//DTD SVG 1.1//EN"
 "http://www.w3.org/Graphics/SVG/1.1/DTD/svg11.dtd">
<!-- Generated by graphviz version 14.1.2 (20260124.0452)
 -->
<!-- Pages: 1 -->
<svg width="184pt" height="71pt"
 viewBox="0.00 0.00 184.00 71.00" xmlns="http://www.w3.org/2000/svg" xmlns:xlink="http://www.w3.org/1999/xlink">
<g id="graph0" class="graph" transform="scale(1 1) rotate(0) translate(4 66.58)">
<polygon fill="white" stroke="none" points="-4,4 -4,-66.58 179.5,-66.58 179.5,4 -4,4"/>
<!-- a -->
<g id="node1" class="node">
<title>a</title>
<ellipse fill="none" stroke="black" cx="27" cy="-26.05" rx="27" ry="18"/>
<text xml:space="preserve" text-anchor="middle" x="27" y="-21" font-family="Times,serif" font-size="14.00">a</text>
</g>
<!-- b -->
<g id="node2" class="node">
<title>b</title>
<ellipse fill="none" stroke="black" cx="148.5" cy="-26.05" rx="27" ry="18"/>
<text xml:space="preserve" text-anchor="middle" x="148.5" y="-21" font-family="Times,serif" font-size="14.00">b</text>
</g>
<!-- a&#45;&#45;b -->
<g id="edge1" class="edge">
<title>a&#45;&#45;b</title>
<path fill="none" stroke="black" d="M49.41,-36.75C56.43,-39.73 64.39,-42.55 72,-44.05 85.74,-46.75 89.76,-46.75 103.5,-44.05 111.11,-42.55 119.07,-39.73 126.09,-36.75"/>
<text xml:space="preserve" text-anchor="middle" x="87.75" y="-49.28" font-family="Times,serif" font-size="14.00">One</text>
</g>
<!-- a&#45;&#45;b -->
<g id="edge2" class="edge">
<title>a&#45;&#45;b</title>
<path fill="none" stroke="red" d="M54.05,-24.32C59.95,-24 66.19,-23.71 72,-23.55 85.99,-23.15 89.51,-23.15 103.5,-23.55 109.31,-23.71 115.55,-24 121.45,-24.32"/>
<text xml:space="preserve" text-anchor="middle" x="87.75" y="-26.75" font-family="Times,serif" font-size="14.00">Two</text>
</g>
<!-- a&#45;&#45;b -->
<g id="edge3" class="edge">
<title>a&#45;&#45;b</title>
<path fill="none" stroke="blue" stroke-width="2.5" stroke-dasharray="5,2" d="M46.87,-13.35C54.36,-9.03 63.26,-4.74 72,-2.55 85.58,0.85 89.92,0.85 103.5,-2.55 112.24,-4.74 121.14,-9.03 128.63,-13.35"/>
<text xml:space="preserve" text-anchor="middle" x="87.75" y="-5.75" font-family="Times,serif" font-size="14.00">Three</text>
</g>
</g>
</svg>
