<?xml version="1.0" encoding="UTF-8" standalone="no"?>
<!DOCTYPE svg PUBLIC "-//W3C//DTD SVG 1.1//EN"
 "http://www.w3.org/Graphics/SVG/1.1/DTD/svg11.dtd">
<!-- Generated by graphviz version 14.1.2 (20260124.0452)
 -->
<!-- Pages: 1 -->
<svg width="71pt" height="111pt"
 viewBox="0.00 0.00 71.00 111.00" xmlns="http://www.w3.org/2000/svg" xmlns:xlink="http://www.w3.org/1999/xlink">
<g id="graph0" class="graph" transform="scale(1 1) rotate(0) translate(4 106.9)">
<polygon fill="white" stroke="none" points="-4,4 -4,-106.9 67.38,-106.9 67.38,4 -4,4"/>
<!-- anchor_1 -->
<g id="node1" class="node">
<title>anchor_1</title>
<polygon fill="lightgrey" stroke="black" points="35.48,-102.9 28.27,-102.9 28.27,-95.7 35.48,-95.7 35.48,-102.9"/>
</g>
<!-- A -->
<g id="node3" class="node">
<title>A</title>
<text xml:space="preserve" text-anchor="middle" x="4.88" y="-46.4" font-family="Times,serif" font-size="14.00">A</text>
</g>
<!-- anchor_1&#45;&gt;A -->
<g id="edge1" class="edge">
<title>anchor_1&#45;&gt;A</title>
<path fill="none" stroke="black" d="M30.1,-95.29C25.88,-88.12 15.12,-69.85 9.11,-59.64"/>
</g>
<!-- B -->
<g id="node4" class="node">
<title>B</title>
<text xml:space="preserve" text-anchor="middle" x="31.88" y="-46.4" font-family="Times,serif" font-size="14.00">B</text>
</g>
<!-- anchor_1&#45;&gt;B -->
<g id="edge3" class="edge">
<title>anchor_1&#45;&gt;B</title>
<path fill="none" stroke="black" d="M31.88,-95.29C31.88,-88.12 31.88,-69.85 31.88,-59.64"/>
</g>
<!-- C -->
<g id="node5" class="node">
<title>C</title>
<text xml:space="preserve" text-anchor="middle" x="58.88" y="-46.4" font-family="Times,serif" font-size="14.00">C</text>
</g>
<!-- anchor_1&#45;&gt;C -->
<g id="edge5" class="edge">
<title>anchor_1&#45;&gt;C</title>
<path fill="none" stroke="black" d="M33.65,-95.29C37.87,-88.12 48.63,-69.85 54.64,-59.64"/>
</g>
<!-- anchor_2 -->
<g id="node2" class="node">
<title>anchor_2</title>
<polygon fill="lightgrey" stroke="black" points="35.48,-7.2 28.27,-7.2 28.27,0 35.48,0 35.48,-7.2"/>
</g>
<!-- A&#45;&gt;anchor_2 -->
<g id="edge2" class="edge">
<title>A&#45;&gt;anchor_2</title>
<path fill="none" stroke="black" d="M9.09,-43.29C15.15,-33.01 26.02,-14.55 30.19,-7.47"/>
</g>
<!-- B&#45;&gt;anchor_2 -->
<g id="edge4" class="edge">
<title>B&#45;&gt;anchor_2</title>
<path fill="none" stroke="black" d="M31.88,-43.29C31.88,-33.01 31.88,-14.55 31.88,-7.47"/>
</g>
<!-- C&#45;&gt;anchor_2 -->
<g id="edge6" class="edge">
<title>C&#45;&gt;anchor_2</title>
<path fill="none" stroke="black" d="M54.66,-43.29C48.6,-33.01 37.73,-14.55 33.56,-7.47"/>
</g>
</g>
</svg>
