<?xml version="1.0" encoding="UTF-8" standalone="no"?>
<!DOCTYPE svg PUBLIC "-//W3C//DTD SVG 1.1//EN"
 "http://www.w3.org/Graphics/SVG/1.1/DTD/svg11.dtd">
<!-- Generated by graphviz version 14.1.2 (20260124.0452)
 -->
<!-- Pages: 1 -->
<svg width="244pt" height="97pt"
 viewBox="0.00 0.00 244.00 97.00" xmlns="http://www.w3.org/2000/svg" xmlns:xlink="http://www.w3.org/1999/xlink">
<g id="graph0" class="graph" transform="scale(1 1) rotate(0) translate(4 93.34)">
<polygon fill="white" stroke="none" points="-4,4 -4,-93.34 239.75,-93.34 239.75,4 -4,4"/>
<!-- node1 -->
<g id="node1" class="node">
<title>node1</title>
<polygon fill="none" stroke="black" points="0,-26.5 0,-75.5 54,-75.5 54,-26.5 0,-26.5"/>
<text xml:space="preserve" text-anchor="middle" x="27" y="-58.2" font-family="Times,serif" font-size="14.00">First</text>
<polyline fill="none" stroke="black" points="0,-51 54,-51"/>
<text xml:space="preserve" text-anchor="middle" x="27" y="-33.7" font-family="Times,serif" font-size="14.00">next</text>
</g>
<!-- node2 -->
<g id="node2" class="node">
<title>node2</title>
<polygon fill="none" stroke="black" points="90,-0.5 90,-49.5 145.75,-49.5 145.75,-0.5 90,-0.5"/>
<text xml:space="preserve" text-anchor="middle" x="117.88" y="-32.2" font-family="Times,serif" font-size="14.00">Second</text>
<polyline fill="none" stroke="black" points="90,-25 145.75,-25"/>
<text xml:space="preserve" text-anchor="middle" x="117.88" y="-7.7" font-family="Times,serif" font-size="14.00">next</text>
</g>
<!-- node1&#45;&gt;node2 -->
<g id="edge1" class="edge">
<title>node1:s&#45;&gt;node2:w</title>
<path fill="none" stroke="black" d="M27,-25.5C27,-1.22 53.32,-18.67 78.57,-23.74"/>
<polygon fill="black" stroke="black" points="78.17,-27.22 88.5,-24.83 78.94,-20.26 78.17,-27.22"/>
</g>
<!-- node3 -->
<g id="node3" class="node">
<title>node3</title>
<polygon fill="none" stroke="black" points="181.75,-38.5 181.75,-87.5 235.75,-87.5 235.75,-38.5 181.75,-38.5"/>
<text xml:space="preserve" text-anchor="middle" x="208.75" y="-70.2" font-family="Times,serif" font-size="14.00">Third</text>
<polyline fill="none" stroke="black" points="181.75,-63 235.75,-63"/>
<text xml:space="preserve" text-anchor="middle" x="208.75" y="-45.7" font-family="Times,serif" font-size="14.00">next</text>
</g>
<!-- node2&#45;&gt;node3 -->
<g id="edge2" class="edge">
<title>node2:link&#45;&gt;node3:s</title>
<path fill="none" stroke="black" d="M145.75,-12.75C171.37,-12.75 199.04,-8.88 206.69,-26.31"/>
<polygon fill="black" stroke="black" points="203.22,-26.81 208.48,-36.01 210.11,-25.54 203.22,-26.81"/>
</g>
<!-- node3&#45;&gt;node1 -->
<g id="edge3" class="edge">
<title>node3:link&#45;&gt;node1:ne</title>
<path fill="none" stroke="black" d="M181.75,-50.75C127.58,-50.75 98.46,-107.75 61.53,-82.66"/>
<polygon fill="black" stroke="black" points="64.07,-80.22 54.16,-76.47 59.57,-85.58 64.07,-80.22"/>
</g>
</g>
</svg>
