<?xml version="1.0" encoding="UTF-8" standalone="no"?>
<!DOCTYPE svg PUBLIC "-//W3C//DTD SVG 1.1//EN"
 "http://www.w3.org/Graphics/SVG/1.1/DTD/svg11.dtd">
<!-- Generated by graphviz version 14.1.2 (20260124.0452)
 -->
<!-- Pages: 1 -->
<svg width="347pt" height="83pt"
 viewBox="0.00 0.00 347.00 83.00" xmlns="http://www.w3.org/2000/svg" xmlns:xlink="http://www.w3.org/1999/xlink">
<g id="graph0" class="graph" transform="scale(1 1) rotate(0) translate(4 79.38)">
<polygon fill="white" stroke="none" points="-4,4 -4,-79.38 343.49,-79.38 343.49,4 -4,4"/>
<g id="clust1" class="cluster">
<title>%11</title>
<polygon fill="#cccccc" stroke="black" stroke-width="0" points="8,-8 8,-44 248,-44 248,-8 8,-8"/>
</g>
<!-- model.h -->
<g id="node1" class="node">
<title>model.h</title>
<polygon fill="orange" stroke="black" points="89,-75.38 31,-75.38 31,-54.62 89,-54.62 89,-75.38"/>
<text xml:space="preserve" text-anchor="middle" x="60" y="-61.88" font-family="monospace" font-size="10.00">model.h</text>
</g>
<!-- main.cpp -->
<g id="node2" class="node">
<title>main.cpp</title>
<polygon fill="#00eeee" stroke="black" points="222,-75.38 158,-75.38 158,-54.62 222,-54.62 222,-75.38"/>
<text xml:space="preserve" text-anchor="middle" x="190" y="-61.88" font-family="monospace" font-size="10.00">main.cpp</text>
</g>
<!-- model.h&#45;&gt;main.cpp -->
<g id="edge1" class="edge">
<title>model.h&#45;&gt;main.cpp</title>
<path fill="none" stroke="orange" stroke-width="2" d="M89.41,-65C105.65,-65 126.37,-65 144.7,-65"/>
<polygon fill="orange" stroke="orange" stroke-width="2" points="144.5,-68.5 154.5,-65 144.5,-61.5 144.5,-68.5"/>
</g>
<!-- server -->
<g id="node3" class="node">
<title>server</title>
<polygon fill="green" stroke="black" points="339.49,-45 323.62,-57.76 291.87,-57.76 276,-45 291.87,-32.24 323.62,-32.24 339.49,-45"/>
<text xml:space="preserve" text-anchor="middle" x="307.75" y="-41.88" font-family="monospace" font-size="10.00">server</text>
</g>
<!-- main.cpp&#45;&gt;server -->
<g id="edge3" class="edge">
<title>main.cpp&#45;&gt;server</title>
<path fill="none" stroke="green" stroke-width="2" d="M222.32,-59.59C236.51,-57.14 253.42,-54.21 268.36,-51.63"/>
<polygon fill="green" stroke="green" stroke-width="2" points="268.63,-55.14 277.89,-49.99 267.44,-48.24 268.63,-55.14"/>
</g>
<!-- interactor.h -->
<g id="node4" class="node">
<title>interactor.h</title>
<polygon fill="orange" stroke="black" points="104,-36.38 16,-36.38 16,-15.62 104,-15.62 104,-36.38"/>
<text xml:space="preserve" text-anchor="middle" x="60" y="-22.88" font-family="monospace" font-size="10.00">interactor.h</text>
</g>
<!-- interactor.h&#45;&gt;main.cpp -->
<g id="edge2" class="edge">
<title>interactor.h&#45;&gt;main.cpp</title>
<path fill="none" stroke="orange" stroke-width="2" d="M96.66,-36.86C111.83,-41.49 129.67,-46.92 145.61,-51.78"/>
<polygon fill="orange" stroke="orange" stroke-width="2" points="144.41,-55.07 154.99,-54.64 146.45,-48.38 144.41,-55.07"/>
</g>
<!-- interactor.cpp -->
<g id="node5" class="node">
<title>interactor.cpp</title>
<polygon fill="#00eeee" stroke="black" points="240,-36.38 140,-36.38 140,-15.62 240,-15.62 240,-36.38"/>
<text xml:space="preserve" text-anchor="middle" x="190" y="-22.88" font-family="monospace" font-size="10.00">interactor.cpp</text>
</g>
<!-- interactor.h&#45;&gt;interactor.cpp -->
<g id="edge5" class="edge">
<title>interactor.h&#45;&gt;interactor.cpp</title>
<path fill="none" stroke="orange" stroke-width="2" d="M104.33,-26C111.49,-26 119.04,-26 126.56,-26"/>
<polygon fill="orange" stroke="orange" stroke-width="2" points="126.51,-29.5 136.51,-26 126.51,-22.5 126.51,-29.5"/>
</g>
<!-- interactor.cpp&#45;&gt;server -->
<g id="edge4" class="edge">
<title>interactor.cpp&#45;&gt;server</title>
<path fill="none" stroke="green" stroke-width="2" d="M240.42,-34.11C249.64,-35.63 259.16,-37.19 268,-38.64"/>
<polygon fill="green" stroke="green" stroke-width="2" points="267.36,-42.08 277.79,-40.25 268.49,-35.17 267.36,-42.08"/>
</g>
</g>
</svg>
