<?xml version="1.0" encoding="UTF-8" standalone="no"?>
<!DOCTYPE svg PUBLIC "-//W3C//DTD SVG 1.1//EN"
 "http://www.w3.org/Graphics/SVG/1.1/DTD/svg11.dtd">
<!-- Generated by graphviz version 14.1.2 (20260124.0452)
 -->
<!-- Pages: 1 -->
<svg width="166pt" height="132pt"
 viewBox="0.00 0.00 166.00 132.00" xmlns="http://www.w3.org/2000/svg" xmlns:xlink="http://www.w3.org/1999/xlink">
<g id="graph0" class="graph" transform="scale(1 1) rotate(0) translate(4 128)">
<polygon fill="white" stroke="none" points="-4,4 -4,-128 162,-128 162,4 -4,4"/>
<g id="clust1" class="cluster">
<title>cluster_1</title>
<path fill="none" stroke="orange" d="M20,-8C20,-8 138,-8 138,-8 144,-8 150,-14 150,-20 150,-20 150,-48 150,-48 150,-54 144,-60 138,-60 138,-60 20,-60 20,-60 14,-60 8,-54 8,-48 8,-48 8,-20 8,-20 8,-14 14,-8 20,-8"/>
</g>
<!-- a -->
<g id="node1" class="node">
<title>a</title>
<ellipse fill="none" stroke="black" cx="79" cy="-106" rx="27" ry="18"/>
<text xml:space="preserve" text-anchor="middle" x="79" y="-100.95" font-family="Times,serif" font-size="14.00">a</text>
</g>
<!-- b -->
<g id="node2" class="node">
<title>b</title>
<ellipse fill="orange" stroke="orange" cx="43" cy="-34" rx="27" ry="18"/>
<text xml:space="preserve" text-anchor="middle" x="43" y="-28.95" font-family="Times,serif" font-size="14.00">b</text>
</g>
<!-- a&#45;&#45;b -->
<g id="edge1" class="edge">
<title>a&#45;&#45;b</title>
<path fill="none" stroke="black" d="M70.65,-88.76C64.83,-77.46 57.11,-62.44 51.3,-51.15"/>
</g>
<!-- c -->
<g id="node3" class="node">
<title>c</title>
<ellipse fill="none" stroke="black" cx="115" cy="-34" rx="27" ry="18"/>
<text xml:space="preserve" text-anchor="middle" x="115" y="-28.95" font-family="Times,serif" font-size="14.00">c</text>
</g>
<!-- a&#45;&#45;c -->
<g id="edge2" class="edge">
<title>a&#45;&#45;c</title>
<path fill="none" stroke="black" d="M87.35,-88.76C93.17,-77.46 100.89,-62.44 106.7,-51.15"/>
</g>
</g>
</svg>
