<?xml version="1.0" encoding="UTF-8" standalone="no"?>
<!DOCTYPE svg PUBLIC "-//W3C//DTD SVG 1.1//EN"
 "http://www.w3.org/Graphics/SVG/1.1/DTD/svg11.dtd">
<!-- Generated by graphviz version 14.1.2 (20260124.0452)
 -->
<!-- Pages: 1 -->
<svg width="327pt" height="32pt"
 viewBox="0.00 0.00 327.00 32.00" xmlns="http://www.w3.org/2000/svg" xmlns:xlink="http://www.w3.org/1999/xlink">
<g id="graph0" class="graph" transform="scale(1 1) rotate(0) translate(4 27.7)">
<polygon fill="white" stroke="none" points="-4,4 -4,-27.7 322.93,-27.7 322.93,4 -4,4"/>
<!-- Fred -->
<g id="node1" class="node">
<title>Fred</title>
<polygon fill="khaki" stroke="black" stroke-width="1.25" points="31.95,-23.7 0,-23.7 0,0 31.95,0 31.95,-23.7"/>
<text xml:space="preserve" text-anchor="middle" x="15.98" y="-6.8" font-family="Times,serif" font-size="14.00">Fred</text>
</g>
<!-- Wilma -->
<g id="node2" class="node">
<title>Wilma</title>
<polygon fill="khaki" stroke="black" stroke-width="1.25" points="112.65,-23.7 67.95,-23.7 67.95,0 112.65,0 112.65,-23.7"/>
<text xml:space="preserve" text-anchor="middle" x="90.3" y="-6.8" font-family="Times,serif" font-size="14.00">Wilma</text>
</g>
<!-- Fred&#45;&gt;Wilma -->
<g id="edge1" class="edge">
<title>Fred&#45;&gt;Wilma</title>
<path fill="none" stroke="#333333" stroke-width="1.25" d="M32.31,-11.85C39.88,-11.85 49.3,-11.85 58.29,-11.85"/>
<polygon fill="#333333" stroke="#333333" stroke-width="1.25" points="58.01,-14.48 65.51,-11.85 58.01,-9.23 58.01,-14.48"/>
</g>
<!-- Betty -->
<g id="node3" class="node">
<title>Betty</title>
<polygon fill="khaki" stroke="black" stroke-width="1.25" points="185.1,-23.7 148.65,-23.7 148.65,0 185.1,0 185.1,-23.7"/>
<text xml:space="preserve" text-anchor="middle" x="166.88" y="-6.8" font-family="Times,serif" font-size="14.00">Betty</text>
</g>
<!-- Wilma&#45;&gt;Betty -->
<g id="edge2" class="edge">
<title>Wilma&#45;&gt;Betty</title>
<path fill="none" stroke="#333333" stroke-width="1.25" d="M113.27,-11.85C121.39,-11.85 130.68,-11.85 139.17,-11.85"/>
<polygon fill="#333333" stroke="#333333" stroke-width="1.25" points="138.92,-14.48 146.42,-11.85 138.92,-9.23 138.92,-14.48"/>
</g>
<!-- Barney -->
<g id="node4" class="node">
<title>Barney</title>
<polygon fill="khaki" stroke="black" stroke-width="1.25" points="267.3,-23.7 221.1,-23.7 221.1,0 267.3,0 267.3,-23.7"/>
<text xml:space="preserve" text-anchor="middle" x="244.2" y="-6.8" font-family="Times,serif" font-size="14.00">Barney</text>
</g>
<!-- Betty&#45;&gt;Barney -->
<g id="edge3" class="edge">
<title>Betty&#45;&gt;Barney</title>
<path fill="none" stroke="#333333" stroke-width="1.25" d="M185.35,-11.85C193.07,-11.85 202.4,-11.85 211.3,-11.85"/>
<polygon fill="#333333" stroke="#333333" stroke-width="1.25" points="211.28,-14.48 218.78,-11.85 211.28,-9.23 211.28,-14.48"/>
</g>
<!-- nil -->
<g id="node5" class="node">
<title>nil</title>
<polygon fill="lightgrey" stroke="black" stroke-width="1.25" points="318.93,-17.79 303.3,-17.79 303.3,-5.91 318.93,-5.91 318.93,-17.79"/>
<text xml:space="preserve" text-anchor="middle" x="311.12" y="-8.75" font-family="sans-serif" font-size="8.00">NIL</text>
</g>
<!-- Barney&#45;&gt;nil -->
<g id="edge4" class="edge">
<title>Barney&#45;&gt;nil</title>
<path fill="none" stroke="black" stroke-width="1.25" stroke-dasharray="5,2" d="M267.9,-11.85C276.35,-11.85 285.77,-11.85 293.56,-11.85"/>
<polygon fill="black" stroke="black" stroke-width="1.25" points="293.54,-14.48 301.04,-11.85 293.54,-9.23 293.54,-14.48"/>
</g>
</g>
</svg>
